<svg width="48" height="58" viewBox="0 0 48 58" fill="none" xmlns="http://www.w3.org/2000/svg">
<g clip-path="url(#clip0_2338_2036)">
<mask id="mask0_2338_2036" style="mask-type:alpha" maskUnits="userSpaceOnUse" x="0" y="0" width="48" height="58">
<path d="M0 5C0 2.23858 2.23858 0 5 0H33.6L48 14.5V53C48 55.7614 45.7614 58 43 58H5C2.23858 58 0 55.7614 0 53V5Z" fill="#C4C4C4"/>
</mask>
<g mask="url(#mask0_2338_2036)">
<path d="M0 0H33.6L48 14.5V58H0V0Z" fill="#209DDF"/>
<path d="M0 0H33.6L48 14.5V58H0V0Z" fill="url(#paint0_linear_2338_2036)"/>
<path d="M33.6 -29V9.66667C33.6 12.336 35.749 14.5 38.4 14.5L86.4 14.5C89.051 14.5 91.2 12.336 91.2 9.66667V-29C91.2 -31.6694 89.051 -33.8333 86.4 -33.8333H38.4C35.749 -33.8333 33.6 -31.6694 33.6 -29Z" fill="#209DDF"/>
<path d="M48 41.0833H0V58H48V41.0833Z" fill="#209DDF"/>
<path fill-rule="evenodd" clip-rule="evenodd" d="M24.5217 35.3937C28.1553 35.3937 31.1009 32.4276 31.1009 28.7688C31.1009 25.11 28.1553 22.144 24.5217 22.144C20.8882 22.144 17.9426 25.11 17.9426 28.7688C17.9426 32.4276 20.8882 35.3937 24.5217 35.3937ZM24.5217 32.336C26.4783 32.336 28.0644 30.7389 28.0644 28.7688C28.0644 26.7987 26.4783 25.2016 24.5217 25.2016C22.5652 25.2016 20.9791 26.7987 20.9791 28.7688C20.9791 30.7389 22.5652 32.336 24.5217 32.336Z" fill="white"/>
<ellipse cx="24.5218" cy="38.4513" rx="2.02434" ry="2.03841" fill="white"/>
<path d="M14.4 45.0761V38.1718V37.9417H17.5707V42.0842H34.6435V45.0761H14.4Z" fill="white"/>
<path fill-rule="evenodd" clip-rule="evenodd" d="M26.04 14.5H23.0035V18.0672H14.9061V21.1248H34.1374V18.0672H26.04V14.5Z" fill="white"/>
</g>
</g>
<defs>
<linearGradient id="paint0_linear_2338_2036" x1="48" y1="0" x2="48" y2="58" gradientUnits="userSpaceOnUse">
<stop stop-color="white" stop-opacity="0.4"/>
<stop offset="0.6667" stop-color="white" stop-opacity="0"/>
</linearGradient>
<clipPath id="clip0_2338_2036">
<rect width="48" height="57.6" fill="white"/>
</clipPath>
</defs>
</svg>
